<?xml version="1.0"?>
<svg xmlns="http://www.w3.org/2000/svg" xmlns:xlink="http://www.w3.org/1999/xlink" xmlns:svgjs="http://svgjs.com/svgjs" version="1.1" width="512" height="512" x="0" y="0" viewBox="0 0 512 512" style="enable-background:new 0 0 512 512" xml:space="preserve" class=""><g><g xmlns="http://www.w3.org/2000/svg" id="Evaluate_1_"><g><path d="m346.322 140.629c-8.364-12.29-22.28-19.629-37.222-19.629h-38.1v-46c0-41.353-33.647-75-75-75-8.291 0-15 6.709-15 15v41.396c0 23.921-13.799 47.201-35.522 57.938-7.343 3.884-15.643 5.777-24.478 6.257v150.409h9.844c5.356 4.016 11.056 7.542 16.913 10.807l21.465-53.668c11.119-28.14 39.141-47.139 69.683-47.139h52.192c10.854 0 21.797 1.011 33.457 3.105 7.943 1.538 15.745 3.598 23.357 6.138l3.025-7.603c.015-.015.015-.029.029-.044 5.494-13.959 3.751-29.648-4.643-41.967z" fill="#ffffff" data-original="#000000" style="" class=""/><path d="m91 121h-76c-8.291 0-15 6.709-15 15v150c0 8.291 6.709 15 15 15h76z" fill="#ffffff" data-original="#000000" style="" class=""/></g><g><path d="m391 241h-9.844c-18.076-13.564-39.302-22.983-61.904-27.363-9.873-1.772-19.087-2.637-28.154-2.637h-52.192c-18.34 0-35.156 11.411-41.821 28.286l-36.05 90.117c-5.493 13.96-3.75 29.648 4.644 41.968 8.364 12.29 22.28 19.629 37.222 19.629h38.099v46c0 41.353 33.647 75 75 75 8.291 0 15-6.709 15-15v-41.396c0-23.921 13.799-47.216 35.508-57.938 7.343-3.884 15.652-5.777 24.492-6.257z" fill="#ffffff" data-original="#000000" style="" class=""/><path d="m497 211h-76v180h76c8.291 0 15-6.709 15-15v-150c0-8.291-6.709-15-15-15z" fill="#ffffff" data-original="#000000" style="" class=""/></g></g></g></svg>
